<svg width="37" height="37" viewBox="0 0 37 37" fill="none" xmlns="http://www.w3.org/2000/svg">
<rect x="0.5" y="0.5" width="36" height="36" rx="18" stroke="#FAFAFA" stroke-opacity="0.2"/>
<path d="M14.3584 13.8145V24H12.8203V13.8145H14.3584ZM20.0325 24.1367C19.1119 24.1367 18.303 23.9248 17.6057 23.501C16.913 23.0771 16.3707 22.4756 15.9788 21.6963C15.5914 20.9124 15.3977 19.985 15.3977 18.9141C15.3977 17.8294 15.5937 16.8975 15.9856 16.1182C16.3821 15.3343 16.9244 14.7327 17.6126 14.3135C18.3007 13.8896 19.0846 13.6777 19.9641 13.6777C20.511 13.6777 21.0214 13.7598 21.4954 13.9238C21.9739 14.0833 22.3977 14.3135 22.7669 14.6143C23.1406 14.915 23.4482 15.2705 23.6897 15.6807C23.9358 16.0863 24.1022 16.5374 24.1888 17.0342H22.6165C22.5208 16.7288 22.3932 16.4577 22.2337 16.2207C22.0742 15.9792 21.8828 15.7741 21.6595 15.6055C21.4361 15.4323 21.1832 15.3024 20.9007 15.2158C20.6227 15.1247 20.3128 15.0791 19.971 15.0791C19.3968 15.0791 18.8795 15.2272 18.4192 15.5234C17.9589 15.8151 17.5943 16.2458 17.3255 16.8154C17.0566 17.3851 16.9221 18.0824 16.9221 18.9072C16.9221 19.7321 17.0566 20.4294 17.3255 20.999C17.5943 21.5687 17.9635 22.0016 18.4329 22.2979C18.9023 22.5895 19.4355 22.7354 20.0325 22.7354C20.5839 22.7354 21.0647 22.6237 21.4749 22.4004C21.885 22.1725 22.204 21.8535 22.4319 21.4434C22.6598 21.0332 22.7737 20.5479 22.7737 19.9873L23.177 20.0625H20.2649V18.791H24.2708V19.9531C24.2708 20.8099 24.0885 21.5505 23.7239 22.1748C23.3639 22.7992 22.8626 23.2822 22.22 23.624C21.582 23.9658 20.8528 24.1367 20.0325 24.1367Z" fill="#FAFAFA"/>
</svg>
